<svg width="51" height="50" viewBox="0 0 51 50" fill="none" xmlns="http://www.w3.org/2000/svg">
<rect x="0.333496" width="50" height="50" rx="25" fill="white" style="fill:white;fill:white;fill-opacity:1;"/>
<path d="M21.4049 27.2556C22.1491 27.2556 22.8629 26.9586 23.3891 26.4298C23.9154 25.9011 24.211 25.1839 24.211 24.4361C24.211 22.8797 23.6498 22.1805 23.0886 21.0526C21.8853 18.6357 22.8371 16.4805 25.3335 14.2857C25.8947 17.1053 27.5784 19.812 29.8233 21.6165C32.0682 23.4211 33.1906 25.5639 33.1906 27.8196C33.1906 28.8563 32.9874 29.8829 32.5925 30.8407C32.1977 31.7986 31.6189 32.6689 30.8893 33.402C30.1597 34.1351 29.2935 34.7166 28.3403 35.1133C27.387 35.5101 26.3653 35.7143 25.3335 35.7143C24.3016 35.7143 23.2799 35.5101 22.3267 35.1133C21.3734 34.7166 20.5072 34.1351 19.7776 33.402C19.048 32.6689 18.4693 31.7986 18.0744 30.8407C17.6795 29.8829 17.4763 28.8563 17.4763 27.8196C17.4763 26.5192 17.9623 25.2323 18.5988 24.4361C18.5988 25.1839 18.8944 25.9011 19.4207 26.4298C19.9469 26.9586 20.6607 27.2556 21.4049 27.2556Z" stroke="#1A1A1A" style="stroke:#1A1A1A;stroke:color(display-p3 0.1020 0.1020 0.1020);stroke-opacity:1;" stroke-linecap="round" stroke-linejoin="round"/>
</svg>
