<svg width="51" height="50" viewBox="0 0 51 50" fill="none" xmlns="http://www.w3.org/2000/svg">
<rect x="0.666504" width="50" height="50" rx="25" fill="white" style="fill:white;fill:white;fill-opacity:1;"/>
<path d="M29.9521 20.7143L23.5236 20.7143C22.9553 20.7143 22.4102 20.9401 22.0083 21.3419C21.6065 21.7438 21.3807 22.2888 21.3807 22.8572C21.3807 23.4255 21.6065 23.9705 22.0083 24.3724C22.4102 24.7742 22.9553 25 23.5236 25L27.8093 25C28.3776 25 28.9227 25.2258 29.3245 25.6276C29.7264 26.0295 29.9521 26.5745 29.9521 27.1429C29.9521 27.7112 29.7264 28.2562 29.3245 28.6581C28.9227 29.06 28.3776 29.2857 27.8093 29.2857L21.3807 29.2857M25.6664 31.4286L25.6664 18.5714M36.3807 25C36.3807 30.9173 31.5838 35.7143 25.6664 35.7143C19.7491 35.7143 14.9521 30.9173 14.9521 25C14.9521 19.0827 19.7491 14.2857 25.6664 14.2857C31.5838 14.2857 36.3807 19.0827 36.3807 25Z" stroke="#1A1A1A" style="stroke:#1A1A1A;stroke:color(display-p3 0.1020 0.1020 0.1020);stroke-opacity:1;" stroke-linecap="round" stroke-linejoin="round"/>
</svg>
