<svg width="113" height="22" viewBox="0 0 113 22" fill="none" xmlns="http://www.w3.org/2000/svg">
<path d="M10.5 3.5L12.8175 8.195L18 8.9525L14.25 12.605L15.135 17.765L10.5 15.3275L5.865 17.765L6.75 12.605L3 8.9525L8.1825 8.195L10.5 3.5Z" fill="#F7B80E" stroke="#F7B80E" style="fill:#F7B80E;fill:color(display-p3 0.9686 0.7216 0.0549);fill-opacity:1;stroke:#F7B80E;stroke:color(display-p3 0.9686 0.7216 0.0549);stroke-opacity:1;" stroke-linecap="round" stroke-linejoin="round"/>
<path d="M33.5 3.5L35.8175 8.195L41 8.9525L37.25 12.605L38.135 17.765L33.5 15.3275L28.865 17.765L29.75 12.605L26 8.9525L31.1825 8.195L33.5 3.5Z" fill="#F7B80E" stroke="#F7B80E" style="fill:#F7B80E;fill:color(display-p3 0.9686 0.7216 0.0549);fill-opacity:1;stroke:#F7B80E;stroke:color(display-p3 0.9686 0.7216 0.0549);stroke-opacity:1;" stroke-linecap="round" stroke-linejoin="round"/>
<path d="M56.5 3.5L58.8175 8.195L64 8.9525L60.25 12.605L61.135 17.765L56.5 15.3275L51.865 17.765L52.75 12.605L49 8.9525L54.1825 8.195L56.5 3.5Z" fill="#F7B80E" stroke="#F7B80E" style="fill:#F7B80E;fill:color(display-p3 0.9686 0.7216 0.0549);fill-opacity:1;stroke:#F7B80E;stroke:color(display-p3 0.9686 0.7216 0.0549);stroke-opacity:1;" stroke-linecap="round" stroke-linejoin="round"/>
<path d="M79.5 3.5L81.8175 8.195L87 8.9525L83.25 12.605L84.135 17.765L79.5 15.3275L74.865 17.765L75.75 12.605L72 8.9525L77.1825 8.195L79.5 3.5Z" fill="#F7B80E" stroke="#F7B80E" style="fill:#F7B80E;fill:color(display-p3 0.9686 0.7216 0.0549);fill-opacity:1;stroke:#F7B80E;stroke:color(display-p3 0.9686 0.7216 0.0549);stroke-opacity:1;" stroke-linecap="round" stroke-linejoin="round"/>
<path d="M102.5 3.5L104.818 8.195L110 8.9525L106.25 12.605L107.135 17.765L102.5 15.3275L97.865 17.765L98.75 12.605L95 8.9525L100.182 8.195L102.5 3.5Z" stroke="#F7B80E" style="stroke:#F7B80E;stroke:color(display-p3 0.9686 0.7216 0.0549);stroke-opacity:1;" stroke-linecap="round" stroke-linejoin="round"/>
</svg>
